# Blender v2.92.0 OBJ File: ''
# www.blender.org
mtllib 5Angles.mtl
o Cone_Cone.002
v 27.430849 -0.974248 -14.362523
v 38.687378 -0.974248 -6.184177
v 34.387764 -0.974248 7.048664
v 20.473932 -0.974248 7.048662
v 16.174324 -0.974248 -6.184179
v 27.430849 22.697376 -2.526711
vt 0.250000 0.490000
vt 0.250000 0.250000
vt 0.478254 0.324164
vt 0.391068 0.055836
vt 0.108932 0.055836
vt 0.750000 0.490000
vt 0.978254 0.324164
vt 0.891068 0.055836
vt 0.608932 0.055836
vt 0.521746 0.324164
vt 0.021746 0.324164
vn 0.5449 0.3750 -0.7500
vn 0.8817 0.3750 0.2865
vn -0.0000 0.3750 0.9270
vn 0.0000 -1.0000 -0.0000
vn -0.8817 0.3750 0.2865
vn -0.5449 0.3750 -0.7500
usemtl None
s off
f 1/1/1 6/2/1 2/3/1
f 2/3/2 6/2/2 3/4/2
f 3/4/3 6/2/3 4/5/3
f 1/6/4 2/7/4 3/8/4 4/9/4 5/10/4
f 4/5/5 6/2/5 5/11/5
f 5/11/6 6/2/6 1/1/6
