# Blender v2.92.0 OBJ File: ''
# www.blender.org
mtllib Pyramidobj.mtl
o Cone_Cone.001
v -13.190096 -1.791478 6.186160
v 1.237677 -1.791478 -14.516039
v 11.952419 -1.791478 8.329879
v 0.000000 27.345936 0.000000
vt 0.250000 0.490000
vt 0.250000 0.250000
vt 0.457846 0.130000
vt 0.750000 0.490000
vt 0.957846 0.130000
vt 0.542154 0.130000
vt 0.042154 0.130000
vn -0.7959 0.2425 -0.5547
vn 0.0000 -1.0000 0.0000
vn 0.8783 0.2425 -0.4119
vn -0.0824 0.2425 0.9666
usemtl None
s off
f 1/1/1 4/2/1 2/3/1
f 1/4/2 2/5/2 3/6/2
f 2/3/3 4/2/3 3/7/3
f 3/7/4 4/2/4 1/1/4
