# Blender v2.92.0 OBJ File: ''
# www.blender.org
mtllib Scena.mtl
o Cube_Cube.002
v 64.600761 -66.613113 50.048897
v -16.086279 -65.066498 46.982414
v 68.362190 -68.385056 -49.817703
v -12.324850 -66.838440 -52.884186
v 67.186546 63.889725 47.830765
v -13.500494 65.436340 44.764282
v 70.947975 62.117783 -52.035835
v -9.739065 63.664398 -55.102318
vt 0.375000 0.000000
vt 0.625000 0.000000
vt 0.625000 0.250000
vt 0.375000 0.250000
vt 0.625000 0.500000
vt 0.375000 0.500000
vt 0.625000 0.750000
vt 0.375000 0.750000
vt 0.625000 1.000000
vt 0.375000 1.000000
vt 0.125000 0.500000
vt 0.125000 0.750000
vt 0.875000 0.500000
vt 0.875000 0.750000
vn -0.0198 -0.9997 0.0170
vn 0.0376 -0.0177 -0.9991
vn 0.0198 0.9997 -0.0170
vn -0.0376 0.0177 0.9991
vn 0.9991 -0.0192 0.0380
vn -0.9991 0.0192 -0.0380
usemtl None
s off
f 1/1/1 2/2/1 4/3/1 3/4/1
f 3/4/2 4/3/2 8/5/2 7/6/2
f 7/6/3 8/5/3 6/7/3 5/8/3
f 5/8/4 6/7/4 2/9/4 1/10/4
f 3/11/5 7/6/5 5/8/5 1/12/5
f 8/5/6 4/13/6 2/14/6 6/7/6
o Cone_Cone.005
v 27.430849 -85.520454 -246.454208
v 100.216904 -85.520454 -204.431152
v 100.216904 -85.520454 -120.385056
v 27.430841 -85.520454 -78.362015
v -45.355209 -85.520454 -120.385071
v -45.355209 -85.520454 -204.431152
v 27.430849 82.571739 -162.408112
vt 0.250000 0.490000
vt 0.250000 0.250000
vt 0.457846 0.370000
vt 0.457846 0.130000
vt 0.250000 0.010000
vt 0.042154 0.130000
vt 0.750000 0.490000
vt 0.957846 0.370000
vt 0.957846 0.130000
vt 0.750000 0.010000
vt 0.542154 0.130000
vt 0.542154 0.370000
vt 0.042154 0.370000
vn 0.4588 0.3974 -0.7947
vn 0.9177 0.3974 0.0000
vn 0.4588 0.3974 0.7947
vn -0.4588 0.3974 0.7947
vn 0.0000 -1.0000 0.0000
vn -0.9177 0.3974 0.0000
vn -0.4588 0.3974 -0.7947
usemtl None
s off
f 9/15/7 15/16/7 10/17/7
f 10/17/8 15/16/8 11/18/8
f 11/18/9 15/16/9 12/19/9
f 12/19/10 15/16/10 13/20/10
f 9/21/11 10/22/11 11/23/11 12/24/11 13/25/11 14/26/11
f 13/20/12 15/16/12 14/27/12
f 14/27/13 15/16/13 9/15/13
